<svg width="42" height="32" viewBox="0 0 42 32" fill="none" xmlns="http://www.w3.org/2000/svg">
<path d="M21 30.4167C15.9167 30.4167 11.0416 28.3973 7.44711 24.8029C3.85267 21.2084 1.83333 16.3333 1.83333 11.25C4.35033 11.25 6.84269 11.7458 9.16809 12.709C11.4935 13.6722 13.6064 15.084 15.3862 16.8638C17.166 18.6436 18.5778 20.7565 19.541 23.0819C20.5042 25.4073 21 27.8997 21 30.4167ZM21 30.4167C26.0833 30.4167 30.9584 28.3973 34.5529 24.8029C38.1473 21.2084 40.1667 16.3333 40.1667 11.25C35.0833 11.25 30.2082 13.2693 26.6138 16.8638C23.0193 20.4582 21 25.3334 21 30.4167ZM26.7308 16.0417C26.864 13.3746 26.4211 10.7101 25.4322 8.22956C24.4432 5.74901 22.9316 3.51061 21 1.66667C19.0684 3.51061 17.5568 5.74901 16.5678 8.22956C15.5789 10.7101 15.136 13.3746 15.2692 16.0417" stroke="#FFFCFC" stroke-width="3" stroke-linecap="round" stroke-linejoin="round"/>
</svg>
